<svg width="120" height="120" viewBox="0 0 120 120" fill="none" xmlns="http://www.w3.org/2000/svg">
  <rect width="120" height="120" rx="24" fill="#F1F5F9" />
  <g fill="#94A3B8" fill-rule="evenodd" clip-rule="evenodd">
    <path d="M44.5 28C46.433 28 48 29.567 48 31.5V60c0 4.042-3.07 7.366-7 7.888V95.5c0 1.933-1.567 3.5-3.5 3.5S34 97.433 34 95.5V67.888C30.07 67.366 27 64.042 27 60V31.5C27 29.567 28.567 28 30.5 28S34 29.567 34 31.5v11a1.5 1.5 0 0 0 3 0v-11c0-1.933 1.567-3.5 3.5-3.5S44 29.567 44 31.5v11a1.5 1.5 0 0 0 3 0v-11C47 29.567 48.567 28 50.5 28Z"/>
    <path d="M74 28c0-1.933 1.567-3.5 3.5-3.5h1c1.933 0 3.5 1.567 3.5 3.5v30.81c0 2.06.687 4.062 1.944 5.688l6.556 8.447c2.147 2.765 3.5 6.566 3.5 10.055V95.5c0 1.933-1.567 3.5-3.5 3.5S87 97.433 87 95.5V82a4.5 4.5 0 0 0-.9-2.7l-6.556-8.447C76.804 66.624 74 60.986 74 54.81V28Z"/>
  </g>
</svg>
